<svg version="1.1" id="Layer_1" xmlns="http://www.w3.org/2000/svg" xmlns:xlink="http://www.w3.org/1999/xlink" x="0px" y="0px"
	 width="100%" viewBox="0 0 360 360" enable-background="new 0 0 360 360" xml:space="preserve">
<path fill="#FEFEFE" opacity="1.000000" stroke="none" 
	d="
M235.000000,361.000000 
	C156.693695,361.000000 78.887383,361.000000 1.040535,361.000000 
	C1.040535,241.068695 1.040535,121.137383 1.040535,1.103031 
	C120.889572,1.103031 240.779251,1.103031 360.834473,1.103031 
	C360.834473,120.999809 360.834473,240.999893 360.834473,361.000000 
	C319.137482,361.000000 277.318726,361.000000 235.000000,361.000000 
M353.307831,302.699921 
	C353.307831,302.699921 353.313049,302.667633 353.223877,301.974121 
	C338.932617,281.237640 324.641357,260.501160 310.515717,240.004990 
	C307.505890,241.864105 305.710602,243.140167 303.764465,244.115204 
	C302.509674,244.743866 300.550232,244.495392 299.741943,245.392609 
	C296.568542,248.915207 293.726593,252.736465 290.778198,256.425995 
	C282.837097,250.283203 276.206635,237.872238 277.606873,230.878098 
	C281.785828,221.143005 285.964813,211.407898 290.611938,201.184082 
	C291.437286,197.116531 292.262634,193.048965 293.513062,188.746796 
	C293.488647,188.189789 293.464203,187.632797 293.274475,186.316360 
	C293.257507,185.538849 293.240540,184.761322 293.717010,183.325226 
	C294.978180,165.851166 293.740234,148.660324 287.125824,132.245758 
	C284.490417,125.705704 281.670776,119.125687 277.988129,113.147125 
	C271.580078,102.744026 264.176270,92.996140 254.149719,85.676079 
	C246.848129,80.345413 239.887985,74.244392 231.905182,70.208435 
	C211.171631,59.725922 189.117966,55.963680 165.800278,58.835968 
	C140.427017,61.961468 118.853973,72.700584 100.629501,90.090630 
	C89.212845,100.984573 80.491043,113.898430 74.350189,128.729721 
	C67.649910,144.912094 65.391441,161.556808 66.107666,178.785004 
	C66.264153,182.549057 67.387794,186.272873 67.923431,190.707260 
	C67.813873,191.165024 67.704315,191.622772 67.255760,192.419617 
	C67.473137,192.938019 67.690514,193.456406 68.251007,194.588120 
	C68.432213,195.730713 68.613411,196.873291 68.499176,198.238235 
	C68.679649,198.481583 68.860130,198.724915 69.358772,199.580597 
	C70.044121,201.417038 70.729469,203.253479 71.442482,205.911285 
	C75.396446,220.214188 82.284065,232.921600 91.994133,244.694290 
	C90.810371,244.738739 89.318954,245.259140 88.504318,244.732559 
	C86.568550,243.481262 84.853783,241.831024 83.231850,240.164719 
	C80.838303,237.705658 78.773972,237.447403 76.010178,239.900543 
	C61.696594,252.605103 46.846867,264.736786 33.005085,277.929596 
	C25.150385,285.416016 18.870638,294.554840 11.399979,303.231567 
	C11.933832,303.488556 12.467687,303.745544 13.909228,304.255280 
	C118.122978,304.260284 222.336731,304.270782 326.550476,304.260071 
	C335.031219,304.259186 343.511993,304.113525 352.506409,304.198578 
	C352.670868,304.126251 352.835358,304.053894 353.615021,304.045654 
	C353.521912,303.602081 353.428802,303.158539 353.307831,302.699921 
z"/>
<path fill="#272F35" opacity="1.000000" stroke="none" 
	d="
M276.934143,231.125092 
	C276.206635,237.872238 282.837097,250.283203 290.778198,256.425995 
	C293.726593,252.736465 296.568542,248.915207 299.741943,245.392609 
	C300.550232,244.495392 302.509674,244.743866 303.764465,244.115204 
	C305.710602,243.140167 307.505890,241.864105 310.515717,240.004990 
	C324.641357,260.501160 338.932617,281.237640 353.002380,302.503601 
	C352.518127,303.367126 352.255432,303.701111 351.992737,304.035126 
	C343.511993,304.113525 335.031219,304.259186 326.550476,304.260071 
	C222.336731,304.270782 118.122978,304.260284 13.328631,303.897186 
	C12.459217,303.342560 12.170400,303.146027 11.881584,302.949493 
	C18.870638,294.554840 25.150385,285.416016 33.005085,277.929596 
	C46.846867,264.736786 61.696594,252.605103 76.010178,239.900543 
	C78.773972,237.447403 80.838303,237.705658 83.231850,240.164719 
	C84.853783,241.831024 86.568550,243.481262 88.504318,244.732559 
	C89.318954,245.259140 90.810371,244.738739 92.432938,244.342255 
	C98.279388,241.414001 103.431633,237.143845 110.301033,242.593903 
	C110.560089,239.897171 110.621674,238.298737 110.881149,236.733078 
	C111.687943,231.864731 112.658112,227.022171 113.395065,222.143951 
	C114.003708,218.115036 114.371033,214.049637 114.850250,209.574127 
	C114.100967,201.286255 113.346725,193.424637 112.575302,185.384033 
	C101.093658,190.934692 97.160744,190.070190 90.831963,180.535065 
	C90.324471,177.371674 89.859901,174.584061 89.184601,171.848480 
	C86.855408,162.413071 86.286957,152.985367 89.704010,143.714493 
	C90.445282,141.703354 91.886421,139.517853 93.635521,138.391006 
	C99.031967,134.914352 104.711891,131.138885 110.136429,138.300339 
	C114.946907,135.074203 119.228462,132.202789 124.296631,128.803848 
	C121.251602,127.762619 119.654457,127.216492 118.885895,126.953690 
	C120.343773,123.311958 121.286209,119.818413 123.097046,116.855621 
	C124.208878,115.036491 126.514862,113.206894 128.529846,112.876244 
	C130.808914,112.502243 133.875122,113.135902 135.679047,114.525612 
	C138.529449,116.721458 140.613312,119.912315 142.408630,121.977104 
	C139.213867,126.527061 135.720001,131.475754 132.279633,136.461349 
	C132.038498,136.810806 132.133560,137.438370 132.173630,137.928345 
	C132.457825,141.404327 132.534149,144.917877 133.115448,148.345062 
	C134.731689,157.874115 140.683502,161.577606 147.411072,157.027435 
	C149.990601,155.282791 152.283173,154.825302 153.872360,156.984787 
	C154.847321,158.309631 154.024872,160.957230 153.722885,163.164368 
	C152.859695,163.615967 152.283173,163.914032 151.339142,164.171356 
	C149.213684,164.712128 147.455750,165.293655 145.442947,165.905579 
	C144.799515,166.243881 144.410934,166.551788 143.623199,166.810547 
	C141.348816,167.219055 139.473618,167.676697 137.613312,168.130722 
	C137.549759,173.014893 138.758163,176.428665 144.207825,176.988708 
	C144.927246,177.078339 145.341782,177.100983 145.822510,177.468414 
	C149.253174,180.174332 152.617645,182.535477 156.037384,185.231598 
	C157.005295,186.060501 157.917969,186.554443 159.036743,187.318756 
	C160.886948,189.431519 162.531036,191.273911 164.081177,193.511505 
	C163.483521,195.939835 162.531036,197.982224 162.572937,200.004013 
	C162.651169,203.779175 163.195648,207.565521 163.964157,211.260254 
	C164.017365,211.516037 167.527954,211.052673 170.076309,210.879990 
	C171.853348,212.072311 174.391586,213.775360 176.953537,215.802429 
	C185.625519,226.726242 194.273773,237.326004 203.106461,248.151810 
	C203.848480,247.344772 204.438873,246.801071 204.914261,246.170670 
	C211.388229,237.585709 211.384323,237.582733 217.419662,246.670761 
	C221.123917,252.248627 221.121246,252.244980 226.430695,248.390549 
	C228.718216,246.729919 230.946899,244.970154 233.348907,243.493942 
	C234.350754,242.878235 235.863937,242.404099 236.922775,242.689285 
	C241.906113,244.031525 249.712860,240.291626 251.708115,235.350906 
	C253.762344,230.264221 255.591949,225.073334 257.919556,220.115692 
	C259.274506,217.229675 261.414276,214.712097 263.200958,212.028748 
	C265.133789,214.344788 267.230316,216.545471 268.962036,219.003204 
	C271.746155,222.954529 274.289215,227.075699 276.934143,231.125092 
M126.104935,219.502045 
	C123.823128,227.639801 121.457848,235.755920 119.338882,243.935852 
	C118.970978,245.356094 119.643967,247.045959 119.836182,248.611282 
	C121.209312,248.297852 122.760529,248.291565 123.924187,247.616852 
	C128.514709,244.955215 133.068634,242.208267 137.447296,239.216568 
	C138.816147,238.281281 140.155502,236.607208 140.519730,235.041351 
	C141.288208,231.737671 141.403870,228.282135 142.082596,224.157288 
	C142.656021,220.772461 143.229446,217.387634 144.402298,213.565720 
	C145.856049,210.537369 147.268539,207.488358 148.772293,204.485046 
	C151.722183,198.593506 150.834457,197.198502 143.506699,196.522797 
	C139.664474,194.834106 135.822235,193.145416 131.142578,191.088669 
	C129.486542,201.000977 128.002655,209.882858 126.104935,219.502045 
M154.570969,215.020615 
	C153.666229,216.782623 152.625305,218.492065 151.916138,220.329575 
	C151.578659,221.203979 151.477661,222.768173 151.982437,223.215607 
	C152.595108,223.758682 154.177750,223.864822 154.966370,223.449356 
	C162.142746,219.668747 163.693161,213.866684 159.292282,205.797089 
	C157.706619,208.894119 156.309418,211.623093 154.570969,215.020615 
z"/>
<path fill="#FCEAD5" opacity="1.000000" stroke="none" 
	d="
M154.009552,163.010849 
	C154.024872,160.957230 154.847321,158.309631 153.872360,156.984787 
	C152.283173,154.825302 149.990601,155.282791 147.411072,157.027435 
	C140.683502,161.577606 134.731689,157.874115 133.115448,148.345062 
	C132.534149,144.917877 132.457825,141.404327 132.173630,137.928345 
	C132.133560,137.438370 132.038498,136.810806 132.279633,136.461349 
	C135.720001,131.475754 139.213867,126.527061 142.408630,121.977104 
	C140.613312,119.912315 138.529449,116.721458 135.679047,114.525612 
	C133.875122,113.135902 130.808914,112.502243 128.529846,112.876244 
	C126.514862,113.206894 124.208878,115.036491 123.097046,116.855621 
	C121.286209,119.818413 120.343773,123.311958 118.885895,126.953690 
	C119.654457,127.216492 121.251602,127.762619 124.296631,128.803848 
	C119.228462,132.202789 114.946907,135.074203 110.136429,138.300339 
	C104.711891,131.138885 99.031967,134.914352 93.635521,138.391006 
	C91.886421,139.517853 90.445282,141.703354 89.704010,143.714493 
	C86.286957,152.985367 86.855408,162.413071 89.184601,171.848480 
	C89.859901,174.584061 90.324471,177.371674 90.485016,180.581421 
	C82.744926,184.023346 75.405479,187.019287 68.066025,190.015228 
	C67.387794,186.272873 66.264153,182.549057 66.107666,178.785004 
	C65.391441,161.556808 67.649910,144.912094 74.350189,128.729721 
	C80.491043,113.898430 89.212845,100.984573 100.629501,90.090630 
	C118.853973,72.700584 140.427017,61.961468 165.800278,58.835968 
	C189.117966,55.963680 211.171631,59.725922 231.905182,70.208435 
	C239.887985,74.244392 246.848129,80.345413 254.149719,85.676079 
	C264.176270,92.996140 271.580078,102.744026 277.988129,113.147125 
	C281.670776,119.125687 284.490417,125.705704 287.125824,132.245758 
	C293.740234,148.660324 294.978180,165.851166 293.133545,183.527405 
	C289.989685,181.945267 287.151672,180.453201 284.914612,178.328430 
	C271.911835,165.978424 259.179993,153.308487 242.983383,145.003174 
	C241.684387,144.337082 239.589417,143.572601 238.645767,144.144104 
	C234.059967,146.921387 229.388550,149.743286 225.406815,153.289688 
	C218.963943,159.028168 213.088425,165.399139 206.871140,171.397110 
	C203.178085,174.959854 199.830475,179.518677 195.378906,181.527863 
	C185.289505,186.081635 174.612930,189.334473 164.175110,193.116302 
	C162.531036,191.273911 160.886948,189.431519 159.072235,186.955139 
	C157.484955,180.186432 156.068268,174.051712 154.664978,167.600037 
	C154.523041,166.893753 154.367737,166.504410 154.326355,165.807648 
	C154.296722,164.670441 154.153137,163.840637 154.009552,163.010849 
z"/>
<path fill="#A6464F" opacity="1.000000" stroke="none" 
	d="
M277.270508,231.001587 
	C274.289215,227.075699 271.746155,222.954529 268.962036,219.003204 
	C267.230316,216.545471 265.133789,214.344788 263.200958,212.028748 
	C261.414276,214.712097 259.274506,217.229675 257.919556,220.115692 
	C255.591949,225.073334 253.762344,230.264221 251.708115,235.350906 
	C249.712860,240.291626 241.906113,244.031525 236.922775,242.689285 
	C235.863937,242.404099 234.350754,242.878235 233.348907,243.493942 
	C230.946899,244.970154 228.718216,246.729919 226.430695,248.390549 
	C221.121246,252.244980 221.123917,252.248627 217.419662,246.670761 
	C211.384323,237.582733 211.388229,237.585709 204.914261,246.170670 
	C204.438873,246.801071 203.848480,247.344772 203.106461,248.151810 
	C194.273773,237.326004 185.625519,226.726242 177.119064,215.439575 
	C177.849716,214.464569 178.420425,214.129089 179.030228,213.895752 
	C184.126129,211.945740 189.932953,210.981522 194.189285,207.884048 
	C204.235626,200.572952 213.691467,192.418274 223.098770,184.272888 
	C229.031433,179.136032 235.212433,174.579361 242.656754,171.987686 
	C243.729050,171.614395 245.324295,171.657608 246.280640,172.203445 
	C256.798706,178.206619 267.424194,184.057022 277.615112,190.582077 
	C282.255859,193.553497 285.995422,197.932343 290.143768,201.672806 
	C285.964813,211.407898 281.785828,221.143005 277.270508,231.001587 
z"/>
<path fill="#F0765A" opacity="1.000000" stroke="none" 
	d="
M290.377869,201.428436 
	C285.995422,197.932343 282.255859,193.553497 277.615112,190.582077 
	C267.424194,184.057022 256.798706,178.206619 246.280640,172.203445 
	C245.324295,171.657608 243.729050,171.614395 242.656754,171.987686 
	C235.212433,174.579361 229.031433,179.136032 223.098770,184.272888 
	C213.691467,192.418274 204.235626,200.572952 194.189285,207.884048 
	C189.932953,210.981522 184.126129,211.945740 179.030228,213.895752 
	C178.420425,214.129089 177.849716,214.464569 177.095352,215.115555 
	C174.391586,213.775360 171.853348,212.072311 170.076309,210.879990 
	C167.527954,211.052673 164.017365,211.516037 163.964157,211.260254 
	C163.195648,207.565521 162.651169,203.779175 162.572937,200.004013 
	C162.531036,197.982224 163.483521,195.939835 164.081177,193.511520 
	C174.612930,189.334473 185.289505,186.081635 195.378906,181.527863 
	C199.830475,179.518677 203.178085,174.959854 206.871140,171.397110 
	C213.088425,165.399139 218.963943,159.028168 225.406815,153.289688 
	C229.388550,149.743286 234.059967,146.921387 238.645767,144.144104 
	C239.589417,143.572601 241.684387,144.337082 242.983383,145.003174 
	C259.179993,153.308487 271.911835,165.978424 284.914612,178.328430 
	C287.151672,180.453201 289.989685,181.945267 292.886841,183.856705 
	C293.240540,184.761322 293.257507,185.538849 293.189484,186.986359 
	C293.098999,188.098038 293.093506,188.539734 293.088013,188.981415 
	C292.262634,193.048965 291.437286,197.116531 290.377869,201.428436 
z"/>
<path fill="#A64850" opacity="1.000000" stroke="none" 
	d="
M114.845291,210.000412 
	C114.371033,214.049637 114.003708,218.115036 113.395065,222.143951 
	C112.658112,227.022171 111.687943,231.864731 110.881149,236.733078 
	C110.621674,238.298737 110.560089,239.897171 110.301033,242.593903 
	C103.431633,237.143845 98.279388,241.414001 92.515587,243.997162 
	C82.284065,232.921600 75.396446,220.214188 71.856445,205.497177 
	C74.875137,204.051758 77.686401,203.358536 80.042000,201.919464 
	C85.102142,198.828110 89.837265,198.827103 94.914856,201.885468 
	C99.456421,204.620956 104.175598,207.102127 108.986336,209.328308 
	C110.680252,210.112167 112.877731,209.807861 114.845291,210.000412 
z"/>
<path fill="#ED765A" opacity="1.000000" stroke="none" 
	d="
M114.850250,209.574127 
	C112.877731,209.807861 110.680252,210.112167 108.986336,209.328308 
	C104.175598,207.102127 99.456421,204.620956 94.914856,201.885468 
	C89.837265,198.827103 85.102142,198.828110 80.042000,201.919464 
	C77.686401,203.358536 74.875137,204.051758 71.842621,205.086487 
	C70.729469,203.253479 70.044121,201.417038 69.208153,199.018433 
	C68.969887,198.309464 68.882248,198.162674 68.794617,198.015884 
	C68.613411,196.873291 68.432213,195.730713 68.136505,193.953598 
	C67.879593,192.906235 67.737175,192.493378 67.594757,192.080536 
	C67.704315,191.622772 67.813873,191.165024 67.994728,190.361237 
	C75.405479,187.019287 82.744926,184.023346 90.431328,180.981049 
	C97.160744,190.070190 101.093658,190.934692 112.575302,185.384033 
	C113.346725,193.424637 114.100967,201.286255 114.850250,209.574127 
z"/>
<path fill="#FCEAD5" opacity="1.000000" stroke="none" 
	d="
M293.300537,188.864105 
	C293.093506,188.539734 293.098999,188.098038 293.272156,187.366074 
	C293.464203,187.632797 293.488647,188.189789 293.300537,188.864105 
z"/>
<path fill="#1E2229" opacity="1.000000" stroke="none" 
	d="
M11.640780,303.090515 
	C12.170400,303.146027 12.459217,303.342560 12.874787,303.770813 
	C12.467687,303.745544 11.933832,303.488556 11.640780,303.090515 
z"/>
<path fill="#FCEAD5" opacity="1.000000" stroke="none" 
	d="
M67.425262,192.250076 
	C67.737175,192.493378 67.879593,192.906235 67.964951,193.646942 
	C67.690514,193.456406 67.473137,192.938019 67.425262,192.250076 
z"/>
<path fill="#FCEAD5" opacity="1.000000" stroke="none" 
	d="
M68.646896,198.127060 
	C68.882248,198.162674 68.969887,198.309464 69.049072,198.712250 
	C68.860130,198.724915 68.679649,198.481583 68.646896,198.127060 
z"/>
<path fill="#1E2229" opacity="1.000000" stroke="none" 
	d="
M352.249573,304.116852 
	C352.255432,303.701111 352.518127,303.367126 353.046936,302.850372 
	C353.313049,302.667633 353.307831,302.699921 353.204987,303.015778 
	C353.068054,303.548248 353.033936,303.764862 352.999817,303.981506 
	C352.835358,304.053894 352.670868,304.126251 352.249573,304.116852 
z"/>
<path fill="#272F35" opacity="1.000000" stroke="none" 
	d="
M353.307434,304.013580 
	C353.033936,303.764862 353.068054,303.548248 353.218933,303.023315 
	C353.428802,303.158539 353.521912,303.602081 353.307434,304.013580 
z"/>
<path fill="#E9745A" opacity="1.000000" stroke="none" 
	d="
M143.802887,214.002808 
	C143.229446,217.387634 142.656021,220.772461 141.575958,224.532837 
	C136.219131,222.860519 131.368942,220.812637 126.518768,218.764755 
	C128.002655,209.882858 129.486542,201.000977 131.142578,191.088669 
	C135.822235,193.145416 139.664474,194.834106 143.702484,197.242401 
	C143.866470,203.308945 143.834671,208.655884 143.802887,214.002808 
z"/>
<path fill="#A1464F" opacity="1.000000" stroke="none" 
	d="
M126.311852,219.133392 
	C131.368942,220.812637 136.219131,222.860519 141.428345,224.898651 
	C141.403870,228.282135 141.288208,231.737671 140.519730,235.041351 
	C140.155502,236.607208 138.816147,238.281281 137.447296,239.216568 
	C133.068634,242.208267 128.514709,244.955215 123.924187,247.616852 
	C122.760529,248.291565 121.209312,248.297852 119.836182,248.611298 
	C119.643967,247.045959 118.970978,245.356094 119.338882,243.935852 
	C121.457848,235.755920 123.823128,227.639801 126.311852,219.133392 
z"/>
<path fill="#EBE1D0" opacity="1.000000" stroke="none" 
	d="
M145.697800,165.875183 
	C147.455750,165.293655 149.213684,164.712128 151.350647,164.484131 
	C151.846985,165.235306 151.964340,165.632935 152.051483,166.330963 
	C152.248505,167.153351 152.475739,167.675354 152.735046,168.603760 
	C153.838776,174.305664 154.910446,179.601135 155.982117,184.896606 
	C152.617645,182.535477 149.253174,180.174332 145.956909,177.015137 
	C145.916000,172.769775 145.806900,169.322479 145.697800,165.875183 
z"/>
<path fill="#CD6E59" opacity="1.000000" stroke="none" 
	d="
M154.741577,214.686340 
	C156.309418,211.623093 157.706619,208.894119 159.292282,205.797089 
	C163.693161,213.866684 162.142746,219.668747 154.966370,223.449356 
	C154.177750,223.864822 152.595108,223.758682 151.982437,223.215607 
	C151.477661,222.768173 151.578659,221.203979 151.916138,220.329575 
	C152.625305,218.492065 153.666229,216.782623 154.741577,214.686340 
z"/>
<path fill="#743B31" opacity="1.000000" stroke="none" 
	d="
M144.102600,213.784271 
	C143.834671,208.655884 143.866470,203.308945 143.927231,197.503616 
	C150.834457,197.198502 151.722183,198.593506 148.772293,204.485046 
	C147.268539,207.488358 145.856049,210.537369 144.102600,213.784271 
z"/>
<path fill="#E8DFCF" opacity="1.000000" stroke="none" 
	d="
M143.902924,176.921738 
	C138.758163,176.428665 137.549759,173.014893 137.613312,168.130722 
	C139.473618,167.676697 141.348816,167.219055 143.650787,167.271744 
	C144.019363,170.828629 143.961151,173.875183 143.902924,176.921738 
z"/>
<path fill="#5C584F" opacity="1.000000" stroke="none" 
	d="
M156.037384,185.231598 
	C154.910446,179.601135 153.838776,174.305664 153.057755,168.538574 
	C153.782806,168.016983 154.217194,167.966980 154.651596,167.916992 
	C156.068268,174.051712 157.484955,180.186432 158.866119,186.684753 
	C157.917969,186.554443 157.005295,186.060501 156.037384,185.231598 
z"/>
<path fill="#756F68" opacity="1.000000" stroke="none" 
	d="
M144.207825,176.988708 
	C143.961151,173.875183 144.019363,170.828629 144.049973,167.320892 
	C144.410934,166.551788 144.799515,166.243881 145.442947,165.905579 
	C145.806900,169.322479 145.916000,172.769775 145.890717,176.670349 
	C145.341782,177.100983 144.927246,177.078339 144.207825,176.988708 
z"/>
<path fill="#5C584F" opacity="1.000000" stroke="none" 
	d="
M152.081696,166.030563 
	C151.964340,165.632935 151.846985,165.235306 151.718140,164.524902 
	C152.283173,163.914032 152.859695,163.615967 153.722885,163.164368 
	C154.153137,163.840637 154.296722,164.670441 154.060577,165.779037 
	C153.147812,166.048752 152.614746,166.039658 152.081696,166.030563 
z"/>
<path fill="#272F35" opacity="1.000000" stroke="none" 
	d="
M152.051483,166.330963 
	C152.614746,166.039658 153.147812,166.048752 153.946640,166.086456 
	C154.367737,166.504410 154.523041,166.893753 154.664978,167.600037 
	C154.217194,167.966980 153.782806,168.016983 153.025696,168.132156 
	C152.475739,167.675354 152.248505,167.153351 152.051483,166.330963 
z"/>
</svg>